<svg width="328" height="257" viewBox="0 0 328 257" fill="none" xmlns="http://www.w3.org/2000/svg">
<g clip-path="url(#clip0)">
<g filter="url(#filter0_i)">
<ellipse cx="307.754" cy="172.755" rx="105.207" ry="105.027" fill="url(#paint0_linear)"/>
</g>
<g filter="url(#filter1_d)">
<path d="M280.715 0L0 107.481L87.5084 138.4L280.715 64.2922V0Z" fill="url(#paint1_linear)"/>
<path d="M0 173.245V107.481L281.698 208.091V275.328L0 173.245Z" fill="url(#paint2_linear)"/>
</g>
<path d="M114.547 128.094L28.5137 117.787L87.0165 138.891L114.547 128.094Z" fill="#D1D1D1"/>
<path fill-rule="evenodd" clip-rule="evenodd" d="M280.715 0L0 107.481V173.245L281.698 275.328V274.535C290.031 276.655 298.761 277.781 307.754 277.781C365.858 277.781 412.961 230.759 412.961 172.754C412.961 170.024 412.857 167.318 412.652 164.64L528.492 209.072L616 178.153L334.302 278.763V346L616 243.918V178.153L335.285 70.6724V71.3601C326.51 68.9913 317.28 67.7275 307.754 67.7275C249.65 67.7275 202.548 114.75 202.548 172.754C202.548 175.158 202.628 177.544 202.788 179.907L87.4592 138.717L114.548 128.094L114.418 128.078L280.715 64.2921V0ZM0 107.481L29.5057 117.906L29.0299 117.849L0 107.481Z" fill="#6FCF97"/>
</g>
<defs>
<filter id="filter0_i" x="202.548" y="67.7276" width="210.413" height="210.054" filterUnits="userSpaceOnUse" color-interpolation-filters="sRGB">
<feFlood flood-opacity="0" result="BackgroundImageFix"/>
<feBlend mode="normal" in="SourceGraphic" in2="BackgroundImageFix" result="shape"/>
<feColorMatrix in="SourceAlpha" type="matrix" values="0 0 0 0 0 0 0 0 0 0 0 0 0 0 0 0 0 0 127 0" result="hardAlpha"/>
<feOffset/>
<feGaussianBlur stdDeviation="9.5"/>
<feComposite in2="hardAlpha" operator="arithmetic" k2="-1" k3="1"/>
<feColorMatrix type="matrix" values="0 0 0 0 0 0 0 0 0 0 0 0 0 0 0 0 0 0 0.25 0"/>
<feBlend mode="normal" in2="shape" result="effect1_innerShadow"/>
</filter>
<filter id="filter1_d" x="-3" y="-4" width="291.698" height="285.328" filterUnits="userSpaceOnUse" color-interpolation-filters="sRGB">
<feFlood flood-opacity="0" result="BackgroundImageFix"/>
<feColorMatrix in="SourceAlpha" type="matrix" values="0 0 0 0 0 0 0 0 0 0 0 0 0 0 0 0 0 0 127 0"/>
<feOffset dx="2" dy="1"/>
<feGaussianBlur stdDeviation="2.5"/>
<feColorMatrix type="matrix" values="0 0 0 0 0 0 0 0 0 0 0 0 0 0 0 0 0 0 0.25 0"/>
<feBlend mode="normal" in2="BackgroundImageFix" result="effect1_dropShadow"/>
<feBlend mode="normal" in="SourceGraphic" in2="effect1_dropShadow" result="shape"/>
</filter>
<linearGradient id="paint0_linear" x1="307.754" y1="67.7276" x2="307.754" y2="277.781" gradientUnits="userSpaceOnUse">
<stop stop-color="white"/>
<stop offset="1" stop-color="#E5E5E5"/>
</linearGradient>
<linearGradient id="paint1_linear" x1="280.223" y1="-1.22002e-05" x2="19.7741" y2="97.4665" gradientUnits="userSpaceOnUse">
<stop stop-color="white"/>
<stop offset="1" stop-color="#E5E5E5"/>
</linearGradient>
<linearGradient id="paint2_linear" x1="8.35754" y1="115.333" x2="281.003" y2="259.517" gradientUnits="userSpaceOnUse">
<stop stop-color="white"/>
<stop offset="1" stop-color="#E5E5E5"/>
</linearGradient>
<clipPath id="clip0">
<rect width="328" height="257" fill="white"/>
</clipPath>
</defs>
</svg>
